<svg xmlns="http://www.w3.org/2000/svg" xmlns:xlink="http://www.w3.org/1999/xlink" width="500" zoomAndPan="magnify" viewBox="0 0 375 374.999991" height="500" preserveAspectRatio="xMidYMid meet" version="1.0"><defs><filter x="0%" y="0%" width="100%" height="100%" id="4333beb69d"><feColorMatrix values="0 0 0 0 1 0 0 0 0 1 0 0 0 0 1 0 0 0 1 0" color-interpolation-filters="sRGB"/></filter><mask id="f890fe0a33"><g filter="url(#4333beb69d)"><rect x="-37.5" width="450" fill="#000000" y="-37.499999" height="449.999989" fill-opacity="0.01"/></g></mask><clipPath id="01e4ed3447"><path d="M 208 356.597656 L 227.84375 356.597656 L 227.84375 375 L 208 375 Z M 208 356.597656 " clip-rule="nonzero"/></clipPath><clipPath id="96f031b857"><path d="M 0 167 L 1 167 L 1 172 L 0 172 Z M 0 167 " clip-rule="nonzero"/></clipPath><clipPath id="90a6f2df0a"><path d="M 374 233 L 375 233 L 375 240 L 374 240 Z M 374 233 " clip-rule="nonzero"/></clipPath><clipPath id="f8633aff61"><path d="M 246 0.71875 L 255 0.71875 L 255 10 L 246 10 Z M 246 0.71875 " clip-rule="nonzero"/></clipPath><clipPath id="ecbd066842"><path d="M 198 0.71875 L 205 0.71875 L 205 7 L 198 7 Z M 198 0.71875 " clip-rule="nonzero"/></clipPath><clipPath id="b5988e276d"><rect x="0" width="375" y="0" height="375"/></clipPath></defs><g mask="url(#f890fe0a33)"><g transform="matrix(1, 0, 0, 1, 0, 0)"><g clip-path="url(#b5988e276d)"><path fill="#ffac33" d="M 196.6875 155.890625 C 197.136719 156.367188 197.804688 156.625 198.660156 156.417969 C 201.125 155.835938 203.324219 152.691406 203.464844 150.195312 C 203.550781 148.765625 202.238281 147.386719 200.761719 147.742188 C 198.695312 148.214844 197.300781 149.472656 196.351562 151.339844 C 195.648438 152.746094 195.164062 154.871094 196.6875 155.890625 " fill-opacity="1" fill-rule="nonzero"/><path fill="#ffac33" d="M 233.683594 138.785156 C 235.496094 137.660156 236.046875 134.886719 234.339844 133.378906 C 232.015625 131.289062 229.273438 130.660156 226.195312 131.105469 C 223.890625 131.449219 220.898438 132.6875 220.945312 135.390625 C 220.742188 136.347656 221.003906 137.394531 221.992188 138.269531 C 224.816406 140.757812 230.53125 140.75 233.683594 138.785156 " fill-opacity="1" fill-rule="nonzero"/><path fill="#ffac33" d="M 266.957031 146.621094 C 267.574219 143.316406 266.644531 140.457031 264.507812 137.875 C 262.925781 135.933594 260.125 133.882812 257.667969 135.414062 C 256.667969 135.761719 255.847656 136.585938 255.589844 137.984375 C 254.867188 141.957031 258.050781 147.207031 261.597656 149.015625 C 263.648438 150.046875 266.507812 149.023438 266.957031 146.621094 " fill-opacity="1" fill-rule="nonzero"/><path fill="#ffac33" d="M 276.304688 170.601562 C 275.738281 173.648438 278.183594 177.6875 280.921875 179.074219 C 282.488281 179.875 284.675781 179.082031 285.019531 177.238281 C 285.5 174.691406 284.777344 172.503906 283.160156 170.515625 C 281.929688 169.015625 279.761719 167.4375 277.863281 168.644531 C 277.113281 168.917969 276.5 169.542969 276.304688 170.601562 " fill-opacity="1" fill-rule="nonzero"/><path fill="#ffac33" d="M 300.914062 210.570312 C 302.550781 208.546875 302.949219 206.265625 302.429688 203.730469 C 302.050781 201.820312 300.886719 199.398438 298.632812 199.578125 C 297.839844 199.46875 297.003906 199.730469 296.332031 200.574219 C 294.402344 203.007812 294.660156 207.726562 296.421875 210.25 C 297.417969 211.699219 299.742188 212.035156 300.914062 210.570312 " fill-opacity="1" fill-rule="nonzero"/><path fill="#ffac33" d="M 286.136719 233.480469 C 285.433594 232.957031 284.496094 232.765625 283.417969 233.238281 C 280.332031 234.574219 278.183594 239.199219 278.578125 242.484375 C 278.804688 244.371094 280.832031 245.871094 282.691406 245.070312 C 285.277344 243.976562 286.808594 242.003906 287.617188 239.347656 C 288.222656 237.34375 288.34375 234.464844 286.136719 233.480469 " fill-opacity="1" fill-rule="nonzero"/><path fill="#ffac33" d="M 271.882812 273.023438 C 272.453125 271.113281 272.570312 268.355469 270.453125 267.414062 C 269.785156 266.917969 268.890625 266.746094 267.867188 267.191406 C 264.921875 268.464844 262.875 272.878906 263.234375 276.023438 C 263.460938 277.832031 265.40625 279.261719 267.175781 278.492188 C 269.640625 277.445312 271.105469 275.566406 271.882812 273.023438 " fill-opacity="1" fill-rule="nonzero"/><path fill="#ffac33" d="M 234.375 284.796875 C 236.628906 283.980469 239.371094 282.117188 238.769531 279.417969 C 238.773438 278.410156 238.292969 277.414062 237.113281 276.738281 C 233.773438 274.828125 228.054688 276.015625 225.285156 278.632812 C 223.714844 280.140625 223.714844 283.03125 225.730469 284.203125 C 228.519531 285.820312 231.378906 285.882812 234.375 284.796875 " fill-opacity="1" fill-rule="nonzero"/><path fill="#ffac33" d="M 201.914062 272.945312 C 202.332031 272.289062 202.4375 271.4375 201.949219 270.503906 C 200.550781 267.828125 196.25 266.191406 193.320312 266.75 C 191.632812 267.078125 190.429688 269.007812 191.253906 270.625 C 192.425781 272.875 194.289062 274.125 196.730469 274.679688 C 198.566406 275.089844 201.179688 275.011719 201.914062 272.945312 " fill-opacity="1" fill-rule="nonzero"/><path fill="#ffac33" d="M 169.855469 261.007812 C 170.507812 260.011719 170.664062 258.710938 169.917969 257.289062 C 167.816406 253.273438 161.378906 250.824219 156.96875 251.667969 C 154.457031 252.15625 152.632812 255.039062 153.886719 257.476562 C 155.609375 260.84375 158.414062 262.730469 162.085938 263.554688 C 164.839844 264.171875 168.734375 264.066406 169.855469 261.007812 " fill-opacity="1" fill-rule="nonzero"/><path fill="#ffac33" d="M 140.980469 236.394531 C 141.722656 236.15625 142.347656 235.566406 142.558594 234.53125 C 143.140625 231.613281 140.871094 227.6875 138.269531 226.300781 C 136.785156 225.507812 134.671875 226.222656 134.292969 227.988281 C 133.792969 230.425781 134.425781 232.542969 135.960938 234.488281 C 137.121094 235.941406 139.144531 237.5 140.980469 236.394531 " fill-opacity="1" fill-rule="nonzero"/><path fill="#ffac33" d="M 119.566406 192.757812 C 117.640625 191.730469 114.882812 192.652344 114.402344 194.941406 C 113.746094 198.101562 114.589844 200.851562 116.570312 203.367188 C 118.050781 205.25 120.675781 207.265625 123.070312 205.851562 C 124.035156 205.542969 124.839844 204.769531 125.113281 203.429688 C 125.871094 199.644531 122.925781 194.554688 119.566406 192.757812 " fill-opacity="1" fill-rule="nonzero"/><path fill="#ffac33" d="M 129.089844 159.65625 C 125.886719 160.820312 123.890625 163.109375 122.734375 166.296875 C 121.871094 168.683594 121.523438 172.160156 124.109375 173.519531 C 124.929688 174.21875 126.074219 174.515625 127.4375 174.011719 C 131.261719 172.589844 134.1875 167.113281 133.929688 163.082031 C 133.792969 160.777344 131.414062 158.816406 129.089844 159.65625 " fill-opacity="1" fill-rule="nonzero"/><path fill="#ffac33" d="M 146.117188 129.273438 C 144 130.046875 142.660156 131.5625 141.902344 133.679688 C 141.3125 135.273438 141.082031 137.609375 142.847656 138.496094 C 143.390625 138.941406 144.132812 139.128906 145.019531 138.804688 C 147.566406 137.855469 149.511719 134.222656 149.339844 131.546875 C 149.238281 130.011719 147.671875 128.710938 146.117188 129.273438 " fill-opacity="1" fill-rule="nonzero"/><path fill="#ffac33" d="M 176.410156 105.464844 C 173.140625 104.203125 170.039062 104.621094 166.992188 106.308594 C 164.703125 107.574219 162.070312 110.050781 163.183594 112.867188 C 163.351562 113.953125 164.039062 114.945312 165.421875 115.472656 C 169.351562 116.960938 175.328125 114.6875 177.859375 111.390625 C 179.304688 109.496094 178.789062 106.371094 176.410156 105.464844 " fill-opacity="1" fill-rule="nonzero"/><path fill="#ffac33" d="M 211.125 92.101562 C 207.820312 90.820312 204.667969 91.25 201.585938 92.953125 C 199.269531 94.242188 196.609375 96.742188 197.71875 99.589844 C 197.882812 100.695312 198.578125 101.710938 199.984375 102.246094 C 203.980469 103.753906 210.023438 101.453125 212.589844 98.105469 C 214.054688 96.191406 213.539062 93.023438 211.125 92.101562 " fill-opacity="1" fill-rule="nonzero"/><path fill="#ffac33" d="M 240.402344 84.40625 C 238.613281 83.414062 235.898438 82.691406 234.492188 84.613281 C 233.863281 85.171875 233.5 86.019531 233.71875 87.132812 C 234.359375 90.335938 238.300781 93.351562 241.519531 93.660156 C 243.363281 93.832031 245.207031 92.214844 244.828125 90.269531 C 244.3125 87.589844 242.757812 85.722656 240.402344 84.40625 " fill-opacity="1" fill-rule="nonzero"/><path fill="#ffac33" d="M 271.882812 117.863281 C 274.394531 118.105469 276.890625 115.902344 276.390625 113.265625 C 275.703125 109.625 273.585938 107.085938 270.367188 105.292969 C 267.945312 103.953125 264.25 102.976562 262.351562 105.5625 C 261.484375 106.320312 260.988281 107.484375 261.289062 109.003906 C 262.152344 113.359375 267.523438 117.441406 271.882812 117.863281 " fill-opacity="1" fill-rule="nonzero"/><path fill="#ffac33" d="M 300.515625 137.902344 C 302.1875 138.054688 303.859375 136.589844 303.53125 134.832031 C 303.066406 132.40625 301.652344 130.710938 299.503906 129.515625 C 297.898438 128.621094 295.425781 127.96875 294.164062 129.703125 C 293.585938 130.207031 293.253906 130.976562 293.457031 131.996094 C 294.027344 134.894531 297.605469 137.617188 300.515625 137.902344 " fill-opacity="1" fill-rule="nonzero"/><path fill="#ffac33" d="M 330.015625 159.984375 C 331.582031 160.140625 333.164062 158.753906 332.839844 157.101562 C 332.410156 154.816406 331.082031 153.21875 329.066406 152.097656 C 327.546875 151.253906 325.214844 150.640625 324.027344 152.273438 C 323.484375 152.75 323.175781 153.472656 323.371094 154.425781 C 323.898438 157.160156 327.277344 159.726562 330.015625 159.984375 " fill-opacity="1" fill-rule="nonzero"/><path fill="#ffac33" d="M 332.164062 183.472656 C 331.5 183.214844 330.726562 183.269531 329.980469 183.867188 C 327.847656 185.582031 327.15625 189.683594 328.171875 192.179688 C 328.757812 193.609375 330.667969 194.347656 331.960938 193.320312 C 333.75 191.902344 334.527344 190.027344 334.597656 187.761719 C 334.628906 186.0625 334.113281 183.777344 332.164062 183.472656 " fill-opacity="1" fill-rule="nonzero"/><path fill="#ffac33" d="M 326.070312 220.074219 C 325.410156 219.816406 324.632812 219.871094 323.886719 220.472656 C 321.769531 222.183594 321.0625 226.273438 322.078125 228.769531 C 322.660156 230.199219 324.59375 230.941406 325.882812 229.917969 C 327.652344 228.492188 328.449219 226.621094 328.5 224.363281 C 328.546875 222.664062 328.019531 220.375 326.070312 220.074219 " fill-opacity="1" fill-rule="nonzero"/><path fill="#ffac33" d="M 320.226562 255.53125 C 319.417969 255.210938 318.464844 255.289062 317.546875 256.023438 C 314.945312 258.113281 314.089844 263.125 315.34375 266.183594 C 316.050781 267.929688 318.390625 268.839844 319.976562 267.578125 C 322.160156 265.84375 323.109375 263.546875 323.195312 260.78125 C 323.246094 258.703125 322.609375 255.90625 320.226562 255.53125 " fill-opacity="1" fill-rule="nonzero"/><path fill="#ffac33" d="M 312.195312 287.777344 C 308.214844 286.078125 301.980469 288.15625 299.246094 291.445312 C 297.675781 293.320312 298.070312 296.558594 300.484375 297.589844 C 303.789062 299.027344 306.992188 298.726562 310.191406 297.117188 C 312.597656 295.910156 315.410156 293.476562 314.382812 290.539062 C 314.257812 289.417969 313.589844 288.371094 312.195312 287.777344 " fill-opacity="1" fill-rule="nonzero"/><path fill="#ffac33" d="M 274.894531 301.578125 C 272.414062 300.519531 268.523438 301.820312 266.816406 303.867188 C 265.835938 305.042969 266.078125 307.0625 267.574219 307.710938 C 269.640625 308.601562 271.640625 308.417969 273.652344 307.40625 C 275.140625 306.65625 276.894531 305.140625 276.261719 303.304688 C 276.179688 302.605469 275.769531 301.949219 274.894531 301.578125 " fill-opacity="1" fill-rule="nonzero"/><path fill="#ffac33" d="M 241.242188 312.082031 C 237.714844 310.574219 232.191406 312.417969 229.757812 315.335938 C 228.367188 317.007812 228.726562 319.875 230.84375 320.796875 C 233.789062 322.070312 236.628906 321.796875 239.472656 320.375 C 241.605469 319.304688 244.09375 317.148438 243.195312 314.546875 C 243.085938 313.546875 242.496094 312.613281 241.242188 312.082031 " fill-opacity="1" fill-rule="nonzero"/><path fill="#ffac33" d="M 204.960938 324.957031 C 202.226562 323.785156 197.921875 325.222656 196.027344 327.496094 C 194.941406 328.792969 195.214844 331.027344 196.867188 331.738281 C 199.160156 332.738281 201.378906 332.523438 203.585938 331.414062 C 205.253906 330.578125 207.195312 328.898438 206.472656 326.863281 C 206.382812 326.089844 205.925781 325.367188 204.960938 324.957031 " fill-opacity="1" fill-rule="nonzero"/><path fill="#ffac33" d="M 167.027344 316.007812 C 165.1875 315.808594 163.324219 317.402344 163.667969 319.351562 C 164.152344 322.027344 165.667969 323.921875 168.023438 325.261719 C 169.777344 326.28125 172.484375 327.03125 173.902344 325.148438 C 174.550781 324.601562 174.929688 323.757812 174.722656 322.632812 C 174.136719 319.417969 170.230469 316.363281 167.027344 316.007812 " fill-opacity="1" fill-rule="nonzero"/><path fill="#ffac33" d="M 137.90625 293.691406 C 136.21875 293.511719 134.515625 294.96875 134.84375 296.75 C 135.273438 299.203125 136.667969 300.933594 138.820312 302.164062 C 140.425781 303.089844 142.914062 303.785156 144.207031 302.046875 C 144.796875 301.546875 145.140625 300.773438 144.949219 299.746094 C 144.417969 296.808594 140.832031 294.011719 137.90625 293.691406 " fill-opacity="1" fill-rule="nonzero"/><path fill="#ffac33" d="M 108.582031 270.902344 C 106.894531 270.722656 105.167969 272.191406 105.496094 273.976562 C 105.925781 276.453125 107.339844 278.191406 109.496094 279.433594 C 111.128906 280.367188 113.613281 281.058594 114.921875 279.332031 C 115.527344 278.828125 115.878906 278.046875 115.691406 277.003906 C 115.140625 274.042969 111.542969 271.230469 108.582031 270.902344 " fill-opacity="1" fill-rule="nonzero"/><path fill="#ffac33" d="M 94.890625 239.050781 C 93.238281 241.195312 92.875 243.582031 93.460938 246.199219 C 93.90625 248.167969 95.171875 250.652344 97.511719 250.425781 C 98.34375 250.53125 99.21875 250.242188 99.902344 249.339844 C 101.847656 246.757812 101.46875 241.851562 99.574219 239.269531 C 98.488281 237.785156 96.0625 237.492188 94.890625 239.050781 " fill-opacity="1" fill-rule="nonzero"/><path fill="#ffac33" d="M 94.460938 212.574219 C 95.171875 212.65625 95.914062 212.402344 96.496094 211.636719 C 98.164062 209.421875 97.832031 205.210938 96.214844 203 C 95.285156 201.730469 93.199219 201.476562 92.1875 202.8125 C 90.773438 204.65625 90.464844 206.695312 90.964844 208.949219 C 91.359375 210.644531 92.445312 212.796875 94.460938 212.574219 " fill-opacity="1" fill-rule="nonzero"/><path fill="#ffac33" d="M 91.511719 178.074219 C 92.574219 178.214844 93.683594 177.839844 94.546875 176.699219 C 97.007812 173.441406 96.527344 167.269531 94.132812 164.011719 C 92.773438 162.152344 89.722656 161.785156 88.226562 163.75 C 86.160156 166.445312 85.710938 169.445312 86.453125 172.746094 C 87.007812 175.21875 88.589844 178.347656 91.511719 178.074219 " fill-opacity="1" fill-rule="nonzero"/><path fill="#ffac33" d="M 103.308594 129.875 C 100.039062 130.71875 97.851562 132.785156 96.40625 135.816406 C 95.332031 138.078125 94.664062 141.472656 97.082031 143.058594 C 97.820312 143.820312 98.914062 144.21875 100.296875 143.851562 C 104.207031 142.816406 107.613281 137.699219 107.753906 133.707031 C 107.824219 131.417969 105.671875 129.261719 103.308594 129.875 " fill-opacity="1" fill-rule="nonzero"/><path fill="#ffac33" d="M 118.527344 110.707031 C 119.105469 111.289062 119.945312 111.59375 121.015625 111.3125 C 124.0625 110.503906 126.695312 106.527344 126.800781 103.425781 C 126.851562 101.640625 125.179688 99.964844 123.355469 100.445312 C 120.808594 101.101562 119.101562 102.703125 117.984375 105.0625 C 117.148438 106.828125 116.613281 109.484375 118.527344 110.707031 " fill-opacity="1" fill-rule="nonzero"/><path fill="#ffac33" d="M 138.054688 81 C 138.78125 81.746094 139.851562 82.128906 141.195312 81.769531 C 145.035156 80.761719 148.359375 75.75 148.480469 71.84375 C 148.550781 69.605469 146.449219 67.496094 144.140625 68.097656 C 140.9375 68.921875 138.800781 70.9375 137.390625 73.898438 C 136.328125 76.128906 135.675781 79.457031 138.054688 81 " fill-opacity="1" fill-rule="nonzero"/><path fill="#ffac33" d="M 180.957031 60.484375 C 178.855469 59.394531 176.722656 59.453125 174.550781 60.367188 C 172.914062 61.054688 170.953125 62.535156 171.519531 64.515625 C 171.558594 65.253906 171.941406 65.96875 172.828125 66.417969 C 175.375 67.699219 179.5625 66.617188 181.492188 64.574219 C 182.609375 63.40625 182.488281 61.269531 180.957031 60.484375 " fill-opacity="1" fill-rule="nonzero"/><path fill="#ffac33" d="M 217.894531 50.265625 C 215.242188 48.898438 212.574219 48.976562 209.835938 50.121094 C 207.78125 50.984375 205.328125 52.839844 206.011719 55.324219 C 206.050781 56.261719 206.542969 57.167969 207.667969 57.742188 C 210.871094 59.359375 216.136719 57.980469 218.585938 55.421875 C 219.976562 53.953125 219.824219 51.257812 217.894531 50.265625 " fill-opacity="1" fill-rule="nonzero"/><path fill="#ffac33" d="M 255.023438 39.945312 C 251.730469 38.246094 248.425781 38.335938 245.035156 39.761719 C 242.492188 40.832031 239.460938 43.117188 240.296875 46.183594 C 240.34375 47.347656 240.949219 48.472656 242.347656 49.179688 C 246.308594 51.1875 252.832031 49.492188 255.847656 46.324219 C 257.589844 44.496094 257.398438 41.164062 255.023438 39.945312 " fill-opacity="1" fill-rule="nonzero"/><path fill="#ff66c4" d="M 249.441406 170.550781 C 247.597656 169.300781 245.792969 167.964844 243.964844 166.683594 C 244.84375 165.015625 245.6875 163.324219 246.632812 161.734375 C 247.773438 159.75 244.378906 157.773438 242.914062 159.40625 C 241.675781 160.828125 240.351562 162.191406 239.09375 163.585938 C 236.921875 162.402344 234.664062 161.449219 232.167969 160.941406 C 229.621094 160.433594 228.328125 163.34375 230.292969 164.996094 C 231.839844 166.324219 233.5625 167.371094 235.320312 168.34375 C 234.21875 170.050781 233.320312 171.894531 232.824219 173.992188 C 232.203125 176.527344 235.75 177.523438 237.316406 176.148438 C 238.9375 174.71875 240.246094 173.035156 241.398438 171.246094 C 243.378906 172.09375 245.359375 172.925781 247.289062 173.835938 C 249.492188 174.863281 251.542969 171.996094 249.441406 170.550781 " fill-opacity="1" fill-rule="nonzero"/><path fill="#ff66c4" d="M 302.894531 67.339844 C 300.707031 65.722656 298.570312 63.992188 296.402344 62.328125 C 297.554688 60.332031 298.675781 58.320312 299.914062 56.40625 C 301.414062 54.039062 297.367188 51.445312 295.488281 53.382812 C 293.886719 55.046875 292.21875 56.65625 290.601562 58.300781 C 288.015625 56.734375 285.277344 55.460938 282.265625 54.710938 C 279.164062 53.953125 277.441406 57.449219 279.746094 59.582031 C 281.578125 61.273438 283.640625 62.648438 285.742188 63.929688 C 284.3125 65.964844 283.105469 68.175781 282.386719 70.71875 C 281.523438 73.78125 285.8125 75.175781 287.789062 73.574219 C 289.84375 71.914062 291.527344 69.914062 293.027344 67.78125 C 295.402344 68.925781 297.796875 70.050781 300.121094 71.257812 C 302.753906 72.628906 305.40625 69.214844 302.894531 67.339844 " fill-opacity="1" fill-rule="nonzero"/><path fill="#ff66c4" d="M 169.988281 35.996094 C 167.816406 35.851562 165.632812 35.613281 163.445312 35.441406 C 163.359375 33.589844 163.238281 31.746094 163.238281 29.929688 C 163.21875 27.683594 159.363281 27.691406 158.949219 29.800781 C 158.585938 31.625 158.15625 33.429688 157.777344 35.242188 C 155.367188 35.3125 152.972656 35.628906 150.617188 36.4375 C 148.207031 37.261719 148.550781 40.375 151.027344 40.804688 C 152.992188 41.148438 154.988281 41.191406 156.953125 41.132812 C 156.867188 43.125 157.023438 45.136719 157.640625 47.160156 C 158.382812 49.601562 161.878906 48.691406 162.515625 46.753906 C 163.1875 44.730469 163.445312 42.664062 163.53125 40.578125 C 165.632812 40.3125 167.714844 40.035156 169.816406 39.839844 C 172.191406 39.617188 172.5 36.171875 169.988281 35.996094 " fill-opacity="1" fill-rule="nonzero"/><g clip-path="url(#01e4ed3447)"><path fill="#ff66c4" d="M 222.269531 366.265625 C 223.628906 364.828125 224.972656 363.375 226.382812 362.027344 C 228.121094 360.351562 225.265625 357.378906 223.300781 358.621094 C 221.632812 359.6875 219.910156 360.691406 218.238281 361.738281 C 216.398438 359.921875 214.363281 358.300781 212.003906 357.070312 C 209.578125 355.824219 207.425781 358.394531 208.921875 360.636719 C 210.113281 362.417969 211.558594 363.976562 213.054688 365.464844 C 211.457031 366.878906 210.007812 368.476562 208.90625 370.460938 C 207.5625 372.835938 210.851562 374.867188 212.832031 373.917969 C 214.878906 372.949219 216.671875 371.621094 218.359375 370.140625 C 220.117188 371.570312 221.890625 372.980469 223.578125 374.453125 C 225.519531 376.132812 228.414062 373.816406 226.695312 371.75 C 225.195312 369.960938 223.75 368.09375 222.269531 366.265625 " fill-opacity="1" fill-rule="nonzero"/></g><path fill="#ff66c4" d="M 215.84375 277.21875 C 217.566406 278.492188 219.855469 276.367188 218.273438 274.738281 C 216.894531 273.335938 215.566406 271.855469 214.207031 270.425781 C 215.257812 269.128906 216.292969 267.808594 217.375 266.585938 C 218.71875 265.074219 216.117188 262.757812 214.574219 263.925781 C 213.226562 264.933594 211.851562 265.890625 210.507812 266.878906 C 208.835938 265.464844 207.027344 264.246094 204.960938 263.367188 C 202.84375 262.46875 201.207031 264.777344 202.617188 266.558594 C 203.742188 267.972656 205.050781 269.195312 206.410156 270.347656 C 205.152344 271.636719 204.050781 273.078125 203.242188 274.816406 C 202.257812 276.902344 205.167969 278.390625 206.773438 277.46875 C 208.425781 276.523438 209.851562 275.28125 211.160156 273.929688 C 212.746094 275.015625 214.3125 276.09375 215.84375 277.21875 " fill-opacity="1" fill-rule="nonzero"/><path fill="#ff66c4" d="M 189.6875 162.792969 C 188.070312 163.574219 186.414062 164.300781 184.796875 165.058594 C 183.332031 163.230469 181.699219 161.578125 179.699219 160.226562 C 177.652344 158.847656 175.464844 160.925781 176.585938 163.09375 C 177.460938 164.816406 178.578125 166.367188 179.769531 167.855469 C 178.1875 168.957031 176.722656 170.238281 175.515625 171.902344 C 174.066406 173.890625 176.804688 176.050781 178.667969 175.425781 C 180.613281 174.761719 182.371094 173.761719 184.039062 172.605469 C 185.472656 174.070312 186.898438 175.527344 188.257812 177.035156 C 189.828125 178.730469 192.652344 176.964844 191.34375 174.925781 C 190.1875 173.167969 189.082031 171.332031 187.949219 169.550781 C 189.328125 168.394531 190.6875 167.234375 192.082031 166.175781 C 193.820312 164.859375 191.566406 161.886719 189.6875 162.792969 " fill-opacity="1" fill-rule="nonzero"/><path fill="#ff66c4" d="M 132.601562 69.585938 C 130.964844 69.320312 129.3125 68.984375 127.660156 68.691406 C 127.730469 67.28125 127.765625 65.867188 127.902344 64.480469 C 128.054688 62.765625 125.113281 62.492188 124.644531 64.074219 C 124.234375 65.4375 123.785156 66.78125 123.355469 68.132812 C 121.515625 68.011719 119.671875 68.082031 117.8125 68.527344 C 115.917969 68.984375 115.96875 71.371094 117.8125 71.886719 C 119.292969 72.289062 120.789062 72.460938 122.304688 72.558594 C 122.097656 74.070312 122.066406 75.613281 122.390625 77.207031 C 122.773438 79.117188 125.507812 78.671875 126.128906 77.242188 C 126.785156 75.753906 127.144531 74.195312 127.351562 72.609375 C 128.972656 72.558594 130.589844 72.507812 132.1875 72.507812 C 134.015625 72.507812 134.496094 69.90625 132.601562 69.585938 " fill-opacity="1" fill-rule="nonzero"/><path fill="#ff66c4" d="M 107.117188 21.230469 C 105.496094 21.285156 103.847656 21.257812 102.210938 21.277344 C 102.003906 19.90625 101.792969 18.539062 101.660156 17.1875 C 101.503906 15.507812 98.628906 15.785156 98.457031 17.394531 C 98.316406 18.769531 98.128906 20.15625 97.957031 21.523438 C 96.164062 21.75 94.40625 22.164062 92.703125 22.929688 C 90.964844 23.714844 91.445312 26.003906 93.324219 26.15625 C 94.804688 26.269531 96.300781 26.164062 97.765625 25.988281 C 97.832031 27.472656 98.089844 28.964844 98.695312 30.425781 C 99.421875 32.203125 101.964844 31.273438 102.292969 29.78125 C 102.65625 28.234375 102.707031 26.664062 102.621094 25.109375 C 104.171875 24.761719 105.722656 24.410156 107.253906 24.117188 C 109.011719 23.78125 109.011719 21.1875 107.117188 21.230469 " fill-opacity="1" fill-rule="nonzero"/><path fill="#ff66c4" d="M 273.894531 344.308594 C 272.1875 343.019531 270.519531 341.648438 268.832031 340.324219 C 269.761719 338.765625 270.65625 337.191406 271.636719 335.699219 C 272.84375 333.855469 269.675781 331.789062 268.195312 333.289062 C 266.921875 334.589844 265.59375 335.839844 264.304688 337.113281 C 262.289062 335.863281 260.152344 334.839844 257.792969 334.226562 C 255.382812 333.609375 253.988281 336.339844 255.78125 338.035156 C 257.210938 339.375 258.808594 340.472656 260.464844 341.488281 C 259.308594 343.078125 258.359375 344.800781 257.773438 346.789062 C 257.054688 349.195312 260.414062 350.320312 261.976562 349.078125 C 263.613281 347.789062 264.941406 346.242188 266.128906 344.578125 C 268.003906 345.492188 269.867188 346.398438 271.675781 347.359375 C 273.742188 348.449219 275.84375 345.800781 273.894531 344.308594 " fill-opacity="1" fill-rule="nonzero"/><path fill="#ff66c4" d="M 346.21875 86.394531 C 344.722656 86.367188 343.191406 86.273438 341.675781 86.222656 C 341.554688 84.949219 341.414062 83.675781 341.363281 82.417969 C 341.277344 80.855469 338.609375 80.984375 338.382812 82.460938 C 338.195312 83.734375 337.953125 85 337.746094 86.265625 C 336.078125 86.386719 334.441406 86.6875 332.839844 87.316406 C 331.183594 87.96875 331.53125 90.105469 333.269531 90.328125 C 334.628906 90.503906 336.011719 90.46875 337.367188 90.363281 C 337.382812 91.75 337.542969 93.128906 338.039062 94.511719 C 338.625 96.183594 341.019531 95.4375 341.398438 94.074219 C 341.792969 92.652344 341.914062 91.214844 341.894531 89.769531 C 343.34375 89.519531 344.789062 89.265625 346.21875 89.0625 C 347.855469 88.832031 347.957031 86.4375 346.21875 86.394531 " fill-opacity="1" fill-rule="nonzero"/><path fill="#ff66c4" d="M 30.523438 245.785156 C 27.59375 245.808594 24.613281 245.707031 21.671875 245.691406 C 21.34375 243.21875 21.015625 240.738281 20.824219 238.292969 C 20.585938 235.269531 15.402344 235.667969 15.039062 238.5625 C 14.75 241.050781 14.351562 243.519531 14.023438 246 C 10.769531 246.335938 7.585938 247.015625 4.484375 248.332031 C 1.332031 249.695312 2.125 253.835938 5.5 254.171875 C 8.1875 254.4375 10.855469 254.285156 13.507812 254.015625 C 13.59375 256.703125 14.007812 259.390625 15.039062 262.058594 C 16.28125 265.269531 20.878906 263.6875 21.550781 261.007812 C 22.257812 258.226562 22.390625 255.421875 22.292969 252.605469 C 25.097656 252.027344 27.886719 251.441406 30.675781 250.96875 C 33.859375 250.425781 33.914062 245.769531 30.523438 245.785156 " fill-opacity="1" fill-rule="nonzero"/><path fill="#cb6ce6" d="M 118.449219 334.289062 C 117.894531 333.972656 117.34375 333.660156 116.792969 333.339844 C 112.730469 331.027344 109.132812 337.335938 113.210938 339.652344 C 113.765625 339.960938 114.296875 340.28125 114.847656 340.589844 C 118.929688 342.90625 122.511719 336.601562 118.449219 334.289062 " fill-opacity="1" fill-rule="nonzero"/><path fill="#cb6ce6" d="M 71.4375 307.96875 C 70.953125 307.683594 70.457031 307.40625 69.972656 307.121094 C 66.339844 305.054688 63.117188 310.6875 66.753906 312.761719 C 67.25 313.039062 67.734375 313.320312 68.230469 313.597656 C 71.867188 315.675781 75.085938 310.035156 71.4375 307.96875 " fill-opacity="1" fill-rule="nonzero"/><path fill="#cb6ce6" d="M 52.476562 256.695312 C 51.289062 252.671875 45.054688 254.523438 46.246094 258.546875 C 46.417969 259.085938 46.574219 259.628906 46.726562 260.167969 C 47.933594 264.195312 54.148438 262.339844 52.957031 258.320312 C 52.804688 257.777344 52.632812 257.238281 52.476562 256.695312 " fill-opacity="1" fill-rule="nonzero"/><path fill="#cb6ce6" d="M 32.933594 202.113281 C 32.671875 202.734375 32.433594 203.351562 32.191406 203.972656 C 30.417969 208.5625 37.53125 211.335938 39.320312 206.746094 C 39.5625 206.125 39.800781 205.507812 40.042969 204.886719 C 41.835938 200.296875 34.707031 197.523438 32.933594 202.113281 " fill-opacity="1" fill-rule="nonzero"/><path fill="#cb6ce6" d="M 59.640625 157.238281 C 59.933594 156.464844 60.242188 155.6875 60.535156 154.90625 C 62.792969 149.152344 53.871094 145.683594 51.632812 151.433594 C 51.320312 152.210938 51.015625 152.984375 50.71875 153.769531 C 48.484375 159.519531 57.386719 162.992188 59.640625 157.238281 " fill-opacity="1" fill-rule="nonzero"/><path fill="#cb6ce6" d="M 71.800781 101.808594 C 71.539062 102.460938 71.28125 103.105469 71.023438 103.757812 C 69.148438 108.582031 76.617188 111.492188 78.5 106.671875 C 78.753906 106.015625 79.011719 105.371094 79.253906 104.714844 C 81.148438 99.898438 73.671875 96.984375 71.800781 101.808594 " fill-opacity="1" fill-rule="nonzero"/><path fill="#cb6ce6" d="M 98.765625 57.109375 C 99.074219 56.308594 99.386719 55.519531 99.695312 54.71875 C 102.003906 48.820312 92.859375 45.253906 90.550781 51.152344 C 90.242188 51.953125 89.929688 52.753906 89.621094 53.546875 C 87.316406 59.453125 96.476562 63.007812 98.765625 57.109375 " fill-opacity="1" fill-rule="nonzero"/><path fill="#cb6ce6" d="M 312.210938 257.074219 C 311.746094 257.410156 311.296875 257.753906 310.847656 258.089844 C 307.492188 260.601562 311.382812 265.8125 314.742188 263.296875 C 315.1875 262.953125 315.652344 262.617188 316.101562 262.273438 C 319.460938 259.769531 315.570312 254.558594 312.210938 257.074219 " fill-opacity="1" fill-rule="nonzero"/><path fill="#cb6ce6" d="M 268.761719 288.34375 C 268.179688 288.785156 267.59375 289.230469 266.992188 289.671875 C 262.617188 292.949219 267.695312 299.734375 272.070312 296.460938 C 272.671875 296.015625 273.257812 295.574219 273.84375 295.128906 C 278.214844 291.859375 273.152344 285.066406 268.761719 288.34375 " fill-opacity="1" fill-rule="nonzero"/><path fill="#cb6ce6" d="M 218.085938 296.023438 C 217.398438 296 216.722656 295.972656 216.035156 295.953125 C 210.972656 295.777344 210.695312 303.628906 215.761719 303.808594 C 216.449219 303.824219 217.121094 303.851562 217.808594 303.878906 C 222.875 304.058594 223.148438 296.207031 218.085938 296.023438 " fill-opacity="1" fill-rule="nonzero"/><path fill="#cb6ce6" d="M 164.113281 294.957031 C 163.566406 294.941406 163.03125 294.914062 162.496094 294.894531 C 158.503906 294.761719 158.28125 300.949219 162.273438 301.085938 C 162.804688 301.113281 163.359375 301.132812 163.890625 301.148438 C 167.886719 301.289062 168.113281 295.09375 164.113281 294.957031 " fill-opacity="1" fill-rule="nonzero"/><path fill="#cb6ce6" d="M 145.636719 217.5 C 145.671875 217.949219 145.726562 218.394531 145.757812 218.84375 C 146.070312 222.160156 151.203125 221.683594 150.890625 218.367188 C 150.855469 217.921875 150.804688 217.472656 150.769531 217.027344 C 150.460938 213.722656 145.328125 214.195312 145.636719 217.5 " fill-opacity="1" fill-rule="nonzero"/><path fill="#cb6ce6" d="M 146 163.429688 C 145.671875 159.90625 140.214844 160.414062 140.542969 163.929688 C 140.578125 164.410156 140.628906 164.882812 140.664062 165.359375 C 140.992188 168.878906 146.449219 168.378906 146.121094 164.859375 C 146.085938 164.386719 146.035156 163.910156 146 163.429688 " fill-opacity="1" fill-rule="nonzero"/><path fill="#cb6ce6" d="M 330.394531 300.519531 C 333.855469 295.171875 325.554688 289.816406 322.113281 295.164062 C 321.628906 295.886719 321.167969 296.609375 320.699219 297.335938 C 317.253906 302.679688 325.539062 308.035156 329 302.6875 C 329.464844 301.96875 329.929688 301.242188 330.394531 300.519531 " fill-opacity="1" fill-rule="nonzero"/><path fill="#cb6ce6" d="M 357.257812 254.59375 C 359.066406 251.796875 354.726562 248.996094 352.933594 251.796875 C 352.675781 252.175781 352.4375 252.554688 352.195312 252.933594 C 350.386719 255.722656 354.726562 258.519531 356.535156 255.730469 C 356.777344 255.351562 357.015625 254.972656 357.257812 254.59375 " fill-opacity="1" fill-rule="nonzero"/><path fill="#cb6ce6" d="M 365.542969 205.792969 C 364.179688 200.246094 355.570312 202.355469 356.929688 207.910156 C 357.121094 208.65625 357.3125 209.40625 357.480469 210.167969 C 358.859375 215.710938 367.453125 213.601562 366.09375 208.046875 C 365.902344 207.289062 365.730469 206.546875 365.542969 205.792969 " fill-opacity="1" fill-rule="nonzero"/><path fill="#cb6ce6" d="M 353.261719 155.835938 C 353.09375 155.078125 352.902344 154.328125 352.710938 153.570312 C 351.335938 147.988281 342.691406 150.117188 344.066406 155.695312 C 344.257812 156.457031 344.429688 157.207031 344.617188 157.960938 C 345.996094 163.539062 354.640625 161.414062 353.261719 155.835938 " fill-opacity="1" fill-rule="nonzero"/><path fill="#cb6ce6" d="M 323.59375 118.320312 C 324.058594 118.550781 324.523438 118.785156 325.003906 119.019531 C 328.464844 120.734375 331.117188 115.347656 327.652344 113.636719 C 327.171875 113.40625 326.710938 113.171875 326.242188 112.9375 C 322.765625 111.226562 320.113281 116.605469 323.59375 118.320312 " fill-opacity="1" fill-rule="nonzero"/><path fill="#cb6ce6" d="M 275.597656 94.273438 C 276.011719 94.480469 276.425781 94.6875 276.855469 94.890625 C 279.941406 96.425781 282.316406 91.621094 279.21875 90.097656 C 278.804688 89.890625 278.390625 89.683594 277.960938 89.476562 C 274.859375 87.945312 272.5 92.746094 275.597656 94.273438 " fill-opacity="1" fill-rule="nonzero"/><path fill="#cb6ce6" d="M 232.1875 64.921875 C 231.496094 64.585938 230.808594 64.242188 230.101562 63.898438 C 224.96875 61.367188 221.0625 69.3125 226.175781 71.84375 C 226.882812 72.1875 227.574219 72.53125 228.261719 72.878906 C 233.394531 75.398438 237.316406 67.449219 232.1875 64.921875 " fill-opacity="1" fill-rule="nonzero"/><path fill="#cb6ce6" d="M 261.304688 15.972656 C 260.648438 15.929688 259.996094 15.890625 259.359375 15.851562 C 254.542969 15.550781 254.074219 23.015625 258.894531 23.316406 C 259.535156 23.359375 260.1875 23.402344 260.84375 23.4375 C 265.664062 23.738281 266.128906 16.273438 261.304688 15.972656 " fill-opacity="1" fill-rule="nonzero"/><path fill="#cb6ce6" d="M 207.835938 12.046875 C 207.097656 11.996094 206.339844 11.953125 205.582031 11.898438 C 200.019531 11.554688 199.484375 20.183594 205.046875 20.535156 C 205.808594 20.578125 206.546875 20.632812 207.300781 20.671875 C 212.867188 21.027344 213.417969 12.390625 207.835938 12.046875 " fill-opacity="1" fill-rule="nonzero"/><path fill="#cb6ce6" d="M 154.179688 8.671875 C 153.617188 8.636719 153.0625 8.605469 152.503906 8.566406 C 153.164062 7.273438 152.714844 5.507812 150.824219 5.246094 C 148.125 4.867188 147.632812 8.132812 148.96875 9.433594 C 146.390625 11.605469 147.027344 16.925781 151.375 17.195312 C 152.128906 17.25 152.886719 17.292969 153.648438 17.34375 C 159.226562 17.683594 159.773438 9.027344 154.179688 8.671875 " fill-opacity="1" fill-rule="nonzero"/><path fill="#cb6ce6" d="M 231.980469 344.921875 C 231.535156 345.085938 231.085938 345.242188 230.621094 345.402344 C 227.296875 346.609375 229.15625 351.785156 232.480469 350.578125 C 232.945312 350.414062 233.394531 350.25 233.839844 350.097656 C 237.183594 348.890625 235.320312 343.714844 231.980469 344.921875 " fill-opacity="1" fill-rule="nonzero"/><path fill="#cb6ce6" d="M 95.40625 327.941406 C 90.929688 327.320312 91.257812 334.675781 95.339844 333.832031 C 98.488281 333.167969 98.953125 328.453125 95.40625 327.941406 " fill-opacity="1" fill-rule="nonzero"/><path fill="#cb6ce6" d="M 46.980469 311.214844 C 42.144531 310.535156 42.492188 318.511719 46.914062 317.59375 C 50.339844 316.878906 50.859375 311.753906 46.980469 311.214844 " fill-opacity="1" fill-rule="nonzero"/><path fill="#cb6ce6" d="M 22.152344 264.613281 C 14.882812 263.597656 15.417969 275.539062 22.050781 274.164062 C 27.164062 273.089844 27.921875 265.433594 22.152344 264.613281 " fill-opacity="1" fill-rule="nonzero"/><path fill="#cb6ce6" d="M 4.242188 217.898438 C -0.957031 217.175781 -0.578125 225.730469 4.175781 224.742188 C 7.84375 223.976562 8.375 218.484375 4.242188 217.898438 " fill-opacity="1" fill-rule="nonzero"/><g clip-path="url(#96f031b857)"><path fill="#cb6ce6" d="M -0.507812 167.855469 C -3.109375 167.492188 -2.917969 171.753906 -0.542969 171.265625 C 1.28125 170.878906 1.554688 168.148438 -0.507812 167.855469 " fill-opacity="1" fill-rule="nonzero"/></g><path fill="#cb6ce6" d="M 9.183594 117.148438 C 6.277344 116.742188 6.484375 121.515625 9.136719 120.964844 C 11.183594 120.535156 11.476562 117.476562 9.183594 117.148438 " fill-opacity="1" fill-rule="nonzero"/><path fill="#cb6ce6" d="M 37.460938 71.570312 C 30.453125 70.589844 30.96875 82.125 37.375 80.796875 C 42.316406 79.757812 43.042969 72.351562 37.460938 71.570312 " fill-opacity="1" fill-rule="nonzero"/><path fill="#cb6ce6" d="M 189.515625 361.464844 C 183.160156 360.566406 183.628906 371.042969 189.429688 369.839844 C 193.921875 368.894531 194.578125 362.175781 189.515625 361.464844 " fill-opacity="1" fill-rule="nonzero"/><path fill="#cb6ce6" d="M 238.664062 350.335938 C 235.460938 349.890625 235.683594 355.160156 238.625 354.558594 C 240.882812 354.082031 241.210938 350.699219 238.664062 350.335938 " fill-opacity="1" fill-rule="nonzero"/><path fill="#cb6ce6" d="M 288.167969 336.921875 C 284.589844 336.425781 284.847656 342.339844 288.136719 341.660156 C 290.667969 341.125 291.046875 337.328125 288.167969 336.921875 " fill-opacity="1" fill-rule="nonzero"/><path fill="#cb6ce6" d="M 333.683594 320.425781 C 326.640625 319.445312 327.140625 331.050781 333.597656 329.71875 C 338.574219 328.664062 339.296875 321.21875 333.683594 320.425781 " fill-opacity="1" fill-rule="nonzero"/><path fill="#cb6ce6" d="M 360.117188 277.773438 C 354.742188 277.023438 355.125 285.875 360.050781 284.859375 C 363.835938 284.054688 364.40625 278.382812 360.117188 277.773438 " fill-opacity="1" fill-rule="nonzero"/><g clip-path="url(#90a6f2df0a)"><path fill="#cb6ce6" d="M 377.148438 233.660156 C 372.828125 233.050781 373.152344 240.160156 377.09375 239.347656 C 380.140625 238.707031 380.589844 234.144531 377.148438 233.660156 " fill-opacity="1" fill-rule="nonzero"/></g><path fill="#cb6ce6" d="M 367.503906 88.058594 C 362.167969 87.304688 362.546875 96.097656 367.4375 95.082031 C 371.191406 94.289062 371.753906 88.660156 367.503906 88.058594 " fill-opacity="1" fill-rule="nonzero"/><path fill="#cb6ce6" d="M 154.730469 113.757812 C 150.238281 113.128906 150.5625 120.515625 154.660156 119.664062 C 157.832031 119 158.292969 114.265625 154.730469 113.757812 " fill-opacity="1" fill-rule="nonzero"/><path fill="#cb6ce6" d="M 125.472656 146.996094 C 120.910156 146.347656 121.238281 153.871094 125.40625 153 C 128.644531 152.332031 129.105469 147.5 125.472656 146.996094 " fill-opacity="1" fill-rule="nonzero"/><path fill="#cb6ce6" d="M 119.082031 197.964844 C 114.796875 197.363281 115.105469 204.414062 119.019531 203.601562 C 122.046875 202.964844 122.496094 198.445312 119.082031 197.964844 " fill-opacity="1" fill-rule="nonzero"/><path fill="#cb6ce6" d="M 141.574219 322.433594 C 135.429688 321.582031 135.875 331.695312 141.488281 330.535156 C 145.828125 329.621094 146.464844 323.128906 141.574219 322.433594 " fill-opacity="1" fill-rule="nonzero"/><path fill="#cb6ce6" d="M 102.347656 289.1875 C 95.527344 288.238281 96.027344 299.46875 102.261719 298.175781 C 107.0625 297.160156 107.769531 289.960938 102.347656 289.1875 " fill-opacity="1" fill-rule="nonzero"/><path fill="#cb6ce6" d="M 77.875 246.300781 C 75.328125 245.9375 75.515625 250.140625 77.84375 249.652344 C 79.632812 249.28125 79.910156 246.585938 77.875 246.300781 " fill-opacity="1" fill-rule="nonzero"/><path fill="#cb6ce6" d="M 63.550781 192.882812 C 56.4375 191.886719 56.957031 203.578125 63.445312 202.234375 C 68.457031 201.175781 69.199219 193.6875 63.550781 192.882812 " fill-opacity="1" fill-rule="nonzero"/><path fill="#cb6ce6" d="M 85.867188 149.015625 C 81.753906 148.4375 82.042969 155.222656 85.816406 154.4375 C 88.726562 153.835938 89.15625 149.480469 85.867188 149.015625 " fill-opacity="1" fill-rule="nonzero"/><path fill="#cb6ce6" d="M 183.453125 286.621094 C 176.683594 285.671875 177.183594 296.800781 183.367188 295.515625 C 188.140625 294.519531 188.847656 287.378906 183.453125 286.621094 " fill-opacity="1" fill-rule="nonzero"/><path fill="#cb6ce6" d="M 140.902344 265.214844 C 144.15625 264.535156 144.640625 259.671875 140.972656 259.148438 C 136.359375 258.503906 136.699219 266.097656 140.902344 265.214844 " fill-opacity="1" fill-rule="nonzero"/><path fill="#cb6ce6" d="M 110.214844 218.457031 C 107.71875 218.113281 107.90625 222.21875 110.179688 221.742188 C 111.9375 221.375 112.195312 218.738281 110.214844 218.457031 " fill-opacity="1" fill-rule="nonzero"/><path fill="#cb6ce6" d="M 278.507812 153.5 C 274.203125 152.90625 274.515625 159.96875 278.441406 159.148438 C 281.472656 158.519531 281.917969 153.992188 278.507812 153.5 " fill-opacity="1" fill-rule="nonzero"/><path fill="#cb6ce6" d="M 243.8125 125.964844 C 240.074219 125.441406 240.332031 131.613281 243.757812 130.898438 C 246.410156 130.347656 246.808594 126.386719 243.8125 125.964844 " fill-opacity="1" fill-rule="nonzero"/><path fill="#cb6ce6" d="M 192.804688 122.230469 C 188.273438 121.59375 188.601562 129.058594 192.753906 128.199219 C 195.9375 127.523438 196.421875 122.738281 192.804688 122.230469 " fill-opacity="1" fill-rule="nonzero"/><path fill="#cb6ce6" d="M 196.109375 83.734375 C 191.945312 83.148438 192.253906 90 196.058594 89.210938 C 198.988281 88.597656 199.4375 84.199219 196.109375 83.734375 " fill-opacity="1" fill-rule="nonzero"/><path fill="#cb6ce6" d="M 147.515625 105.183594 C 149.960938 104.671875 150.304688 101.039062 147.566406 100.652344 C 144.121094 100.171875 144.378906 105.835938 147.515625 105.183594 " fill-opacity="1" fill-rule="nonzero"/><path fill="#cb6ce6" d="M 344.617188 41.71875 C 338.9375 40.914062 339.347656 50.285156 344.550781 49.207031 C 348.5625 48.363281 349.148438 42.351562 344.617188 41.71875 " fill-opacity="1" fill-rule="nonzero"/><path fill="#cb6ce6" d="M 297.605469 21.371094 C 291.734375 20.554688 292.164062 30.203125 297.519531 29.09375 C 301.652344 28.226562 302.273438 22.035156 297.605469 21.371094 " fill-opacity="1" fill-rule="nonzero"/><g clip-path="url(#f8633aff61)"><path fill="#cb6ce6" d="M 250.613281 0.902344 C 244.34375 0.0273438 244.8125 10.351562 250.527344 9.160156 C 254.953125 8.230469 255.605469 1.609375 250.613281 0.902344 " fill-opacity="1" fill-rule="nonzero"/></g><g clip-path="url(#ecbd066842)"><path fill="#cb6ce6" d="M 201.914062 6.855469 C 205.046875 6.191406 205.511719 1.492188 201.964844 0.980469 C 197.503906 0.359375 197.832031 7.699219 201.914062 6.855469 " fill-opacity="1" fill-rule="nonzero"/></g></g></g></g><path fill="#292f33" d="M 28.6875 318.21875 L 318.484375 28.410156 C 322.796875 24.097656 350.339844 51.652344 346.027344 55.953125 L 56.226562 345.761719 C 51.925781 350.074219 24.375 322.523438 28.6875 318.21875 Z M 28.6875 318.21875 " fill-opacity="1" fill-rule="nonzero"/><path fill="#66757f" d="M 324.175781 33.652344 L 34.148438 323.679688 L 43.886719 333.417969 L 333.914062 43.390625 Z M 324.175781 33.652344 " fill-opacity="1" fill-rule="nonzero"/><path fill="#e1e8ed" d="M 369.441406 16.953125 L 364.898438 12.40625 L 357.496094 5.007812 C 356.667969 4.179688 355.675781 3.652344 354.683594 3.144531 C 350.535156 1.003906 345.375 1.53125 341.902344 5.007812 L 318.71875 28.191406 L 324.175781 33.652344 L 333.914062 43.390625 L 346.257812 55.730469 L 369.441406 32.546875 C 373.753906 28.234375 373.753906 21.253906 369.441406 16.953125 Z M 43.886719 333.417969 L 28.6875 318.21875 L 4.324219 342.574219 C 0.847656 346.046875 0.320312 351.210938 2.460938 355.355469 C 2.96875 356.347656 3.496094 357.34375 4.324219 358.167969 L 11.722656 365.570312 L 16.269531 370.113281 C 20.582031 374.425781 27.5625 374.425781 31.863281 370.113281 L 56.21875 345.761719 Z M 43.886719 333.417969 " fill-opacity="1" fill-rule="nonzero"/><path fill="#f5f8fa" d="M 333.914062 43.390625 L 364.898438 12.40625 L 357.496094 5.007812 C 356.667969 4.179688 355.675781 3.652344 354.683594 3.144531 L 324.164062 33.660156 Z M 34.148438 323.679688 L 2.460938 355.367188 C 2.96875 356.359375 3.496094 357.351562 4.324219 358.179688 L 11.722656 365.582031 L 43.886719 333.417969 Z M 34.148438 323.679688 " fill-opacity="1" fill-rule="nonzero"/><path fill="#ffac33" d="M 307.136719 153.453125 L 324.144531 147.15625 L 330.761719 122.890625 C 331.632812 119.691406 334.542969 117.472656 337.863281 117.472656 C 341.171875 117.472656 344.085938 119.691406 344.957031 122.890625 L 351.574219 147.15625 L 368.582031 153.453125 C 371.46875 154.511719 373.378906 157.269531 373.378906 160.34375 C 373.378906 163.421875 371.46875 166.179688 368.582031 167.238281 L 351.660156 173.503906 L 344.988281 200.140625 C 344.171875 203.40625 341.226562 205.710938 337.863281 205.710938 C 334.488281 205.710938 331.542969 203.40625 330.726562 200.140625 L 324.054688 173.503906 L 307.136719 167.238281 C 304.246094 166.179688 302.339844 163.421875 302.339844 160.34375 C 302.339844 157.28125 304.246094 154.523438 307.136719 153.453125 M 120.34375 47.261719 L 149.128906 36.605469 L 159.78125 7.820312 C 161.546875 3.042969 166.101562 -0.121094 171.199219 -0.121094 C 176.28125 -0.121094 180.839844 3.042969 182.613281 7.820312 L 193.269531 36.605469 L 222.042969 47.261719 C 226.832031 49.035156 229.996094 53.582031 229.996094 58.675781 C 229.996094 63.773438 226.832031 68.316406 222.042969 70.09375 L 193.269531 80.746094 L 182.613281 109.53125 C 180.839844 114.308594 176.28125 117.472656 171.199219 117.472656 C 166.101562 117.472656 161.546875 114.308594 159.78125 109.53125 L 149.128906 80.746094 L 120.34375 70.09375 C 115.566406 68.316406 112.402344 63.773438 112.402344 58.675781 C 112.410156 53.582031 115.578125 49.035156 120.34375 47.261719 M 254.558594 218.074219 L 269.8125 212.425781 L 275.460938 197.183594 C 276.398438 194.65625 278.8125 192.980469 281.503906 192.980469 C 284.195312 192.980469 286.609375 194.65625 287.546875 197.183594 L 293.195312 212.425781 L 308.4375 218.074219 C 310.972656 219.011719 312.652344 221.425781 312.652344 224.117188 C 312.652344 226.820312 310.972656 229.222656 308.4375 230.160156 L 293.195312 235.808594 L 287.546875 251.050781 C 286.609375 253.578125 284.195312 255.253906 281.503906 255.253906 C 278.800781 255.253906 276.398438 253.578125 275.460938 251.050781 L 269.8125 235.808594 L 254.558594 230.160156 C 252.03125 229.222656 250.355469 226.808594 250.355469 224.117188 C 250.355469 221.414062 252.03125 219.011719 254.558594 218.074219 " fill-opacity="1" fill-rule="nonzero"/></svg>